<?xml version="1.0" standalone="no"?>
<!DOCTYPE svg PUBLIC "-//W3C//DTD SVG 20010904//EN"
 "http://www.w3.org/TR/2001/REC-SVG-20010904/DTD/svg10.dtd">
<svg version="1.0" xmlns="http://www.w3.org/2000/svg"
 width="290.000000pt" height="290.000000pt" viewBox="0 0 290.000000 290.000000"
 preserveAspectRatio="xMidYMid meet">

<g transform="translate(0.000000,290.000000) scale(0.100000,-0.100000)"
fill="#000000" stroke="none">
<path d="M1310 2793 c0 -5 22 -78 49 -163 l49 -155 33 1 34 0 52 155 c29 84
53 157 53 162 0 4 -61 7 -135 7 -74 0 -135 -3 -135 -7z"/>
<path d="M1698 2622 c-9 -35 -12 -67 -7 -80 11 -30 56 -40 77 -17 16 16 16 16
-4 5 -50 -30 -68 16 -40 98 14 38 12 52 -4 52 -4 0 -14 -26 -22 -58z"/>
<path d="M1120 2666 c0 -2 11 -6 25 -8 13 -3 22 -1 19 3 -5 9 -44 13 -44 5z"/>
<path d="M1093 2654 c-7 -3 -17 -21 -23 -39 -12 -37 -2 -68 29 -92 26 -20 46
-15 21 5 -26 21 -39 94 -20 117 13 16 12 16 -7 9z"/>
<path d="M1800 2641 c0 -25 6 -27 13 -6 4 8 2 17 -3 20 -6 4 -10 -3 -10 -14z"/>
<path d="M1878 2606 c-3 -14 -2 -23 3 -21 8 6 14 -9 24 -65 13 -72 16 -76 30
-49 7 13 10 26 6 29 -5 3 -14 32 -22 64 -16 64 -34 82 -41 42z"/>
<path d="M976 2611 c-3 -4 1 -17 10 -27 14 -18 15 -18 5 2 -6 12 -7 24 -4 28
3 3 4 6 0 6 -3 0 -8 -4 -11 -9z"/>
<path d="M1177 2583 c-14 -4 -16 -8 -6 -19 6 -8 9 -23 6 -33 -3 -14 -1 -18 9
-14 9 3 13 18 11 39 -1 19 -2 33 -2 33 0 -1 -8 -3 -18 -6z"/>
<path d="M1970 2574 c0 -8 5 -12 10 -9 6 3 10 10 10 16 0 5 -4 9 -10 9 -5 0
-10 -7 -10 -16z"/>
<path d="M886 2572 c-2 -4 2 -18 10 -32 10 -19 13 -21 14 -7 0 14 11 11 62
-22 35 -22 64 -38 66 -37 6 7 -21 55 -29 50 -10 -6 -85 31 -94 46 -7 12 -22
13 -29 2z"/>
<path d="M1956 2535 c-9 -26 -7 -32 5 -12 6 10 9 21 6 23 -2 3 -7 -2 -11 -11z"/>
<path d="M2016 2482 c-30 -51 -35 -66 -25 -73 10 -6 16 -3 19 9 13 42 55 112
69 115 12 2 11 4 -4 8 -17 5 -28 -6 -59 -59z"/>
<path d="M781 2511 c-7 -5 -9 -10 -4 -12 12 -5 73 -95 73 -108 0 -6 6 -8 14
-5 11 4 5 20 -26 70 -22 35 -41 64 -42 64 0 0 -7 -4 -15 -9z"/>
<path d="M1833 2505 c-7 -8 -9 -16 -4 -19 5 -3 12 1 15 10 8 22 4 25 -11 9z"/>
<path d="M2120 2491 c0 -10 -9 -44 -19 -77 -11 -32 -18 -61 -15 -63 9 -10 28
21 39 62 6 23 15 52 18 63 5 15 3 23 -8 28 -10 3 -15 -1 -15 -13z"/>
<path d="M926 2475 c4 -11 7 -28 8 -37 0 -10 4 -14 9 -9 5 5 2 21 -8 37 -9 16
-13 20 -9 9z"/>
<path d="M707 2463 c-4 -6 3 -19 16 -29 12 -11 17 -12 11 -4 -6 8 -13 22 -16
30 -3 9 -7 10 -11 3z"/>
<path d="M2180 2423 l-25 -26 33 22 c31 22 39 32 25 30 -5 0 -19 -12 -33 -26z"/>
<path d="M1410 2431 c0 -4 -13 -6 -30 -3 -88 13 -395 -87 -461 -150 -8 -7 -27
-20 -44 -28 -38 -19 -215 -197 -215 -216 0 -8 -4 -14 -8 -14 -17 0 -100 -158
-130 -245 -36 -105 -52 -197 -54 -310 -2 -90 9 -204 21 -220 5 -5 12 -32 16
-59 16 -112 133 -313 250 -431 81 -81 136 -120 250 -179 153 -80 273 -108 450
-108 268 1 509 103 700 298 174 177 292 470 279 694 -2 36 -4 75 -4 88 -1 74
-80 331 -114 371 -7 9 -24 36 -38 61 -14 25 -40 61 -57 80 -17 19 -31 39 -31
44 0 4 -7 5 -16 2 -9 -3 -12 -2 -9 4 7 11 -56 76 -121 125 -108 83 -274 156
-414 183 -74 15 -220 23 -220 13z m-183 -126 c14 -10 32 -13 47 -9 26 6 66
-10 66 -27 0 -5 -11 -15 -25 -21 -19 -8 -22 -14 -13 -19 11 -7 11 -12 0 -29
-10 -17 -10 -20 4 -20 9 0 18 -9 21 -21 4 -16 11 -19 29 -15 32 8 42 -13 16
-35 -26 -21 -27 -25 -6 -64 14 -27 14 -30 -2 -42 -24 -17 -44 -16 -66 4 -15
13 -18 14 -18 2 0 -8 6 -21 12 -27 10 -10 10 -15 -2 -22 -23 -14 -40 8 -40 54
-1 38 -2 40 -15 22 -8 -11 -15 -16 -15 -11 0 4 -9 0 -21 -11 -17 -16 -22 -16
-29 -4 -17 26 -11 37 30 53 33 12 40 20 40 42 0 15 -4 24 -10 20 -5 -3 -10 -1
-10 5 0 6 7 13 15 16 12 5 13 10 4 20 -6 8 -9 20 -6 28 3 8 -1 17 -9 20 -12 5
-14 1 -9 -17 8 -24 8 -25 6 -45 -2 -18 -51 -5 -76 21 -11 11 -15 17 -9 13 7
-3 19 9 28 29 9 19 21 35 27 35 6 0 7 14 3 35 -7 38 0 43 33 20z m53 11 c0 -3
-4 -8 -10 -11 -5 -3 -10 -1 -10 4 0 6 5 11 10 11 6 0 10 -2 10 -4z m518 -115
c-1 -19 -7 -27 -15 -24 -7 3 -13 1 -13 -5 0 -5 8 -13 17 -16 11 -5 13 -10 6
-17 -14 -14 -44 -18 -68 -9 -15 6 -34 -1 -70 -26 -28 -18 -55 -34 -61 -34 -7
0 -14 -6 -17 -14 -7 -19 -54 -18 -54 2 0 8 20 27 43 42 24 15 40 30 37 34 -4
4 0 4 9 1 9 -4 19 -2 22 3 3 6 -1 12 -9 16 -8 3 -15 10 -15 15 0 15 32 22 46
10 10 -8 23 -3 56 20 24 16 53 30 66 31 19 0 22 -5 20 -29z m-923 -11 c-3 -5
-12 -10 -18 -10 -7 0 -6 4 3 10 19 12 23 12 15 0z m-19 -77 c11 -15 13 -15 14
-3 0 12 2 13 9 1 5 -7 7 -26 4 -42 -3 -23 0 -28 19 -31 17 -2 23 -10 23 -28 0
-14 4 -31 8 -38 5 -7 9 -25 9 -40 1 -24 5 -28 23 -24 30 5 41 -15 20 -38 -9
-10 -15 -24 -13 -30 2 -6 30 14 62 44 32 31 64 56 72 56 17 0 19 -16 3 -25 -6
-4 -8 -13 -5 -21 3 -8 0 -11 -10 -7 -7 3 -14 1 -14 -5 0 -5 -12 -21 -26 -35
-14 -14 -23 -31 -19 -36 3 -6 0 -8 -8 -5 -8 3 -47 -20 -88 -50 -58 -44 -82
-56 -110 -56 -33 0 -36 2 -32 24 3 16 -7 40 -33 77 -23 33 -39 68 -41 93 -5
38 -2 44 36 75 35 29 41 40 41 72 0 46 15 89 31 89 7 0 18 -8 25 -17z m64 -23
c0 -5 -5 -10 -11 -10 -5 0 -7 5 -4 10 3 6 8 10 11 10 2 0 4 -4 4 -10z m824
-26 c18 -18 21 -56 6 -85 -15 -27 -23 -24 -39 14 -8 17 -23 39 -33 48 -23 20
-23 26 0 32 34 9 51 7 66 -9z m396 6 c0 -5 -2 -10 -4 -10 -3 0 -8 5 -11 10 -3
6 -1 10 4 10 6 0 11 -4 11 -10z m-125 -20 c-4 -7 2 -9 19 -4 28 7 34 -4 14
-24 -9 -9 -9 -12 0 -12 6 0 23 12 36 27 25 27 26 27 43 9 12 -12 14 -20 7 -23
-6 -2 -20 -10 -30 -18 -18 -14 -18 -14 3 -15 12 0 25 5 28 10 10 15 45 12 51
-5 8 -20 -13 -45 -37 -45 -22 0 -22 -1 -10 -33 9 -23 8 -24 -22 -21 -30 3 -31
3 -13 -11 11 -8 16 -15 12 -15 -5 0 -3 -7 4 -15 11 -14 5 -55 -8 -55 -4 1 -23
10 -42 21 -19 11 -27 18 -18 15 9 -3 19 2 22 10 3 9 1 12 -4 9 -6 -3 -10 0
-11 7 0 10 -2 10 -6 1 -2 -7 -11 -13 -18 -13 -9 0 -12 -11 -10 -34 3 -34 -5
-40 -33 -22 -8 5 -20 2 -30 -7 -9 -7 -24 -17 -34 -20 -23 -8 -49 23 -41 51 4
17 10 21 29 16 18 -5 24 -2 24 9 0 9 -5 19 -10 22 -6 4 -8 11 -4 16 3 6 16 4
31 -6 31 -21 42 -12 18 15 -12 14 -25 18 -39 14 -19 -6 -19 -6 -3 10 26 26 21
38 -15 34 -42 -4 -50 23 -11 41 24 11 29 10 44 -10 14 -19 21 -21 40 -13 20 9
20 11 6 17 -9 3 -17 2 -17 -3 0 -6 -5 -10 -11 -10 -6 0 0 15 13 33 13 17 24
35 24 40 3 15 4 17 10 17 3 0 2 -5 -1 -10z m235 -54 c0 -3 -4 -8 -10 -11 -5
-3 -10 -1 -10 4 0 6 5 11 10 11 6 0 10 -2 10 -4z m-868 -28 c-7 -7 -12 -8 -12
-2 0 6 3 14 7 17 3 4 9 5 12 2 2 -3 -1 -11 -7 -17z m83 -208 c3 -5 3 -16 -2
-22 -4 -7 -9 -29 -10 -48 -3 -39 17 -61 47 -53 15 4 20 0 20 -14 0 -38 40 -62
110 -65 55 -3 65 -6 62 -20 -2 -10 1 -18 5 -19 11 -1 185 -1 201 0 7 1 12 7
11 14 -4 35 1 40 25 23 15 -10 27 -12 31 -6 11 18 35 11 35 -10 0 -23 -3 -22
114 -22 72 1 91 4 99 17 20 37 107 38 107 1 0 -7 9 -16 20 -19 19 -5 20 -14
20 -126 l0 -121 -222 0 c-122 0 -219 -2 -217 -4 2 -2 47 -10 99 -16 52 -7 106
-14 120 -16 14 -2 67 -9 118 -16 l94 -12 -6 -32 c-4 -18 -13 -45 -20 -60 -8
-16 -22 -47 -32 -69 -77 -169 -248 -345 -422 -430 -23 -12 -39 -25 -35 -30 5
-4 3 -5 -3 -2 -7 4 -38 -3 -70 -14 -33 -12 -81 -26 -109 -33 -27 -7 -49 -17
-48 -23 1 -6 -5 -14 -13 -17 -11 -4 -15 -2 -11 8 4 11 -18 13 -121 14 -140 0
-250 18 -345 58 -32 14 -63 22 -69 18 -7 -4 -8 -3 -4 4 4 7 3 12 -3 12 -6 0
-45 21 -88 47 -171 104 -331 307 -389 493 -19 60 -19 60 19 60 18 0 58 4 88 9
30 5 95 14 144 21 181 24 174 28 -52 29 l-223 1 0 118 c0 103 2 120 19 134 10
8 20 21 22 27 5 14 82 18 86 5 12 -34 22 -37 124 -36 97 1 104 2 102 20 -2 17
4 20 47 19 40 -1 50 -4 52 -20 3 -17 13 -18 103 -19 95 -1 100 0 103 21 3 19
10 21 65 21 52 0 66 4 85 24 12 13 22 32 22 41 0 13 6 16 23 12 41 -11 51 5
44 72 -4 47 -2 61 8 61 8 0 17 -4 20 -10z m956 -375 c5 4 6 -1 3 -9 -9 -23
-20 -19 -21 7 0 12 1 16 4 9 3 -6 9 -10 14 -7z m-1886 -145 c3 -5 1 -10 -4
-10 -6 0 -11 5 -11 10 0 6 2 10 4 10 3 0 8 -4 11 -10z m55 -210 c0 -5 -4 -10
-10 -10 -5 0 -10 5 -10 10 0 6 5 10 10 10 6 0 10 -4 10 -10z m1697 -62 c-3 -8
-6 -5 -6 6 -1 11 2 17 5 13 3 -3 4 -12 1 -19z m-37 -58 c0 -5 -5 -10 -11 -10
-5 0 -7 5 -4 10 3 6 8 10 11 10 2 0 4 -4 4 -10z m-1390 -212 c0 -6 -6 -5 -15
2 -8 7 -15 14 -15 16 0 2 7 1 15 -2 8 -4 15 -11 15 -16z"/>
<path d="M1254 2254 c-18 -14 -18 -14 6 -3 31 14 36 19 24 19 -6 0 -19 -7 -30
-16z"/>
<path d="M1293 2081 c-26 -22 -30 -41 -9 -41 8 0 21 -3 30 -6 11 -4 14 0 13
15 -1 12 -5 21 -9 21 -4 0 -5 7 -2 15 8 19 4 19 -23 -4z m12 -21 c3 -5 1 -10
-4 -10 -6 0 -11 5 -11 10 0 6 2 10 4 10 3 0 8 -4 11 -10z"/>
<path d="M850 1945 c0 -8 2 -15 4 -15 2 0 6 7 10 15 3 8 1 15 -4 15 -6 0 -10
-7 -10 -15z"/>
<path d="M768 1925 c2 -15 0 -25 -8 -25 -21 0 -5 -34 19 -40 14 -3 32 -21 45
-45 11 -22 24 -41 28 -43 4 -2 4 -10 1 -19 -4 -9 14 -2 45 18 32 22 46 37 39
41 -7 4 -13 3 -15 -2 -6 -16 -52 -12 -52 4 0 8 5 18 10 21 12 7 4 25 -11 25
-6 0 -7 -5 -4 -10 10 -16 -23 -24 -40 -10 -8 7 -15 25 -15 41 0 20 -5 29 -16
29 -11 0 -15 6 -11 20 3 12 0 20 -8 20 -8 0 -11 -9 -7 -25z"/>
<path d="M2025 1950 c-3 -5 -1 -10 4 -10 6 0 11 5 11 10 0 6 -2 10 -4 10 -3 0
-8 -4 -11 -10z"/>
<path d="M1970 1930 c8 -6 24 -15 35 -21 16 -8 15 -6 -4 10 -13 12 -28 21 -35
21 -6 0 -4 -5 4 -10z"/>
<path d="M1936 1824 c-17 -12 -17 -14 -4 -14 9 0 20 5 23 11 11 17 2 18 -19 3z"/>
<path d="M975 1241 c-99 -15 -187 -31 -195 -34 -42 -18 206 5 295 27 55 14
109 27 120 29 62 14 -64 1 -220 -22z"/>
<path d="M1290 1260 c-14 -4 -60 -16 -103 -26 -43 -9 -79 -20 -82 -23 -2 -4
158 -7 356 -7 198 -1 358 0 356 2 -4 5 -182 45 -209 48 -10 1 -21 5 -24 9 -10
10 -264 7 -294 -3z m233 -13 c4 -10 -13 -13 -71 -12 -49 1 -77 6 -80 13 -6 18
144 17 151 -1z"/>
<path d="M1740 1254 c36 -9 75 -17 88 -18 12 0 22 -4 22 -8 0 -8 70 -16 183
-22 127 -6 76 10 -108 34 -231 31 -267 34 -185 14z"/>
<path d="M688 1173 c6 -2 18 -2 25 0 6 3 1 5 -13 5 -14 0 -19 -2 -12 -5z"/>
<path d="M750 1166 c8 -8 56 -21 105 -30 120 -21 116 -22 104 14 l-11 30 -106
0 c-91 0 -104 -2 -92 -14z"/>
<path d="M986 1152 c4 -15 10 -30 13 -34 6 -7 110 -23 204 -31 52 -4 53 -2 41
62 l-7 31 -128 -1 -129 -1 6 -26z"/>
<path d="M1273 1135 c2 -26 7 -49 10 -52 3 -3 74 -8 158 -11 172 -6 179 -3
179 70 l0 38 -176 0 -177 0 6 -45z"/>
<path d="M1646 1149 c-13 -69 -13 -70 57 -63 68 6 168 22 174 28 2 2 8 17 12
34 l9 30 -123 1 -122 2 -7 -32z"/>
<path d="M1916 1158 c-12 -45 -10 -46 89 -27 86 16 135 32 135 44 0 3 -49 5
-109 5 -104 0 -109 -1 -115 -22z"/>
<path d="M2168 1173 c6 -2 18 -2 25 0 6 3 1 5 -13 5 -14 0 -19 -2 -12 -5z"/>
<path d="M2229 1158 l-76 -20 -21 -51 c-12 -28 -20 -53 -17 -55 2 -3 40 5 84
18 79 22 80 23 100 71 12 26 21 50 21 53 0 8 -1 7 -91 -16z"/>
<path d="M590 1160 c0 -16 30 -77 42 -87 15 -12 67 -28 115 -37 l32 -5 -24 52
-24 52 -71 16 c-38 9 -70 13 -70 9z"/>
<path d="M770 1119 c0 -35 54 -109 80 -109 9 0 48 -8 88 -19 39 -10 73 -17 75
-14 8 7 -37 113 -48 113 -5 0 -52 9 -102 19 -51 10 -93 14 -93 10z m173 -56
c-7 -2 -19 -2 -25 0 -7 3 -2 5 12 5 14 0 19 -2 13 -5z"/>
<path d="M2005 1107 c-59 -12 -105 -27 -112 -36 -12 -17 -36 -91 -31 -96 2 -2
21 0 43 5 22 4 65 13 95 19 57 11 100 47 100 83 0 9 5 20 10 23 12 7 14 26 3
24 -5 -1 -53 -10 -108 -22z"/>
<path d="M1015 1063 c16 -67 31 -93 55 -97 67 -13 201 -29 205 -25 7 7 -17 93
-29 105 -6 6 -55 16 -108 23 -126 14 -128 14 -123 -6z"/>
<path d="M1780 1069 c-30 -5 -72 -9 -93 -10 -46 -3 -53 -11 -61 -71 -8 -55
-16 -52 105 -37 l88 12 17 46 c10 25 22 52 27 59 11 14 1 14 -83 1z"/>
<path d="M1293 996 c12 -64 17 -66 161 -66 128 0 133 2 145 61 6 28 11 52 11
54 0 3 -73 5 -163 5 l-164 0 10 -54z"/>
<path d="M640 1036 c0 -8 62 -108 75 -121 14 -15 165 -55 165 -45 0 5 -5 12
-10 15 -6 4 -24 29 -40 57 -27 48 -32 52 -92 68 -35 10 -71 21 -80 25 -10 4
-18 4 -18 1z"/>
<path d="M2205 1024 c-22 -7 -59 -18 -82 -24 -36 -9 -46 -18 -73 -66 -18 -30
-30 -58 -27 -60 7 -7 127 26 153 42 21 12 84 100 84 116 0 10 -4 9 -55 -8z"/>
<path d="M843 976 c4 -10 23 -41 42 -71 35 -52 37 -53 103 -65 37 -6 75 -14
84 -16 15 -4 13 5 -11 58 l-29 62 -68 13 c-38 7 -76 14 -84 16 -8 1 -21 7 -29
11 -11 7 -13 5 -8 -8z m74 -42 c-3 -3 -12 -4 -19 -1 -8 3 -5 6 6 6 11 1 17 -2
13 -5z m23 -44 c0 -5 -2 -10 -4 -10 -3 0 -8 5 -11 10 -3 6 -1 10 4 10 6 0 11
-4 11 -10z"/>
<path d="M1970 965 c-19 -7 -48 -14 -65 -14 -41 -2 -75 -12 -75 -22 0 -5 -11
-31 -24 -59 l-24 -50 35 5 c19 2 61 9 94 16 55 11 61 15 92 63 51 78 51 76 25
75 -13 0 -39 -7 -58 -14z m-10 -80 c7 -9 8 -15 2 -15 -5 0 -12 7 -16 15 -3 8
-4 15 -2 15 2 0 9 -7 16 -15z"/>
<path d="M1070 933 c-1 -4 12 -33 27 -64 l28 -56 59 -7 c32 -3 75 -6 94 -6 29
0 33 3 27 18 -5 9 -10 32 -13 50 -5 40 -20 47 -117 56 -38 4 -78 10 -87 12
-10 3 -18 2 -18 -3z"/>
<path d="M1750 930 c-25 -5 -66 -11 -91 -15 -45 -6 -47 -7 -58 -50 -18 -72
-18 -72 47 -64 31 4 67 8 79 8 17 1 29 15 50 59 15 31 29 60 31 65 4 8 5 8
-58 -3z"/>
<path d="M1310 898 c1 -7 6 -34 13 -59 l12 -45 111 -3 c124 -3 117 -6 129 73
l7 46 -136 0 c-102 0 -136 -3 -136 -12z"/>
<path d="M2115 868 c-16 -6 -37 -13 -45 -16 -8 -3 -28 -7 -45 -9 -16 -2 -38
-14 -48 -26 -55 -65 -66 -81 -63 -84 2 -2 37 8 77 22 58 20 85 37 124 75 51
51 51 55 0 38z"/>
<path d="M790 826 c34 -34 58 -49 100 -60 30 -8 64 -18 75 -22 13 -5 8 6 -19
38 -39 47 -40 47 -181 85 -14 3 -6 -9 25 -41z"/>
<path d="M990 775 c50 -52 71 -63 136 -70 l45 -6 -28 43 c-15 24 -28 44 -29
46 -1 1 -30 7 -65 13 -35 5 -73 12 -84 15 -14 4 -6 -9 25 -41z"/>
<path d="M1841 802 c-87 -17 -103 -30 -79 -60 11 -15 11 -16 -3 -4 -14 10 -19
8 -34 -14 -9 -14 -15 -28 -12 -30 2 -2 34 2 71 10 52 11 76 22 103 47 36 35
59 70 46 68 -4 0 -46 -8 -92 -17z"/>
<path d="M1150 783 c0 -1 12 -22 27 -46 23 -40 32 -45 71 -51 89 -12 90 -12
78 39 -9 38 -14 45 -36 46 -14 0 -51 4 -82 8 -32 4 -58 6 -58 4z m130 -33 c0
-5 -4 -10 -10 -10 -5 0 -10 5 -10 10 0 6 5 10 10 10 6 0 10 -4 10 -10z"/>
<path d="M1623 773 c-35 -4 -42 -8 -48 -31 -3 -15 -8 -35 -11 -45 -5 -16 0
-18 47 -15 50 3 54 5 87 51 l34 47 -34 -2 c-18 -1 -52 -3 -75 -5z"/>
<path d="M1345 746 c3 -12 8 -33 11 -48 6 -28 7 -28 85 -28 85 0 90 3 103 66
l7 30 -106 0 c-103 0 -106 -1 -100 -20z"/>
<path d="M930 704 c30 -20 72 -46 95 -59 41 -24 175 -77 175 -70 0 7 -104 59
-113 57 -5 -1 -6 2 -2 7 8 14 -73 71 -100 71 -13 0 -39 7 -58 15 -57 24 -56
18 3 -21z"/>
<path d="M1977 724 c-3 -4 -27 -10 -52 -15 -33 -6 -70 -26 -128 -70 -83 -63
-77 -68 23 -22 54 25 180 102 180 109 0 6 -16 5 -23 -2z"/>
<path d="M1084 681 c4 -6 12 -11 17 -11 5 0 19 -9 31 -20 11 -10 37 -26 57
-35 20 -9 50 -23 66 -32 27 -15 26 -12 -15 33 -33 36 -55 51 -83 56 -22 4 -48
10 -59 14 -14 4 -18 2 -14 -5z"/>
<path d="M1778 675 c-2 -3 -25 -7 -50 -10 -37 -5 -54 -15 -99 -58 l-54 -53 55
21 c75 28 131 59 154 84 16 17 10 32 -6 16z m-58 -39 c0 -11 -19 -15 -25 -6
-3 5 1 10 9 10 9 0 16 -2 16 -4z"/>
<path d="M1246 648 c5 -13 71 -63 112 -85 27 -15 28 -3 4 47 -18 37 -57 54
-81 36 -11 -8 -13 -8 -7 2 5 8 0 12 -13 12 -12 0 -18 -5 -15 -12z"/>
<path d="M1588 653 c-34 -4 -40 -9 -58 -50 -11 -25 -20 -47 -20 -49 0 -2 13 5
30 14 16 9 30 20 30 25 0 4 6 7 13 8 6 0 22 13 35 30 13 16 20 28 15 27 -4 -1
-25 -3 -45 -5z"/>
<path d="M1390 613 c47 -89 69 -94 105 -23 14 27 25 52 25 55 0 3 -34 5 -75 5
l-75 0 20 -37z m63 -44 c-8 -8 -13 -7 -18 2 -5 8 -4 10 3 5 7 -4 12 -2 12 5 0
7 3 9 7 6 4 -4 2 -12 -4 -18z"/>
<path d="M627 2403 c-2 -5 7 -19 21 -33 14 -14 20 -17 13 -7 -16 21 -6 21 45
4 22 -8 51 -17 67 -21 26 -6 27 -5 15 14 -8 12 -24 20 -39 20 -15 0 -46 7 -69
15 -49 17 -48 17 -53 8z"/>
<path d="M2214 2344 l-51 -54 26 -22 c14 -13 19 -15 12 -5 -13 16 -10 22 20
55 19 20 42 42 52 50 16 12 15 34 -1 31 -4 -1 -30 -26 -58 -55z"/>
<path d="M2313 2345 c0 -8 4 -12 9 -9 5 3 6 10 3 15 -9 13 -12 11 -12 -6z"/>
<path d="M540 2310 c-12 -8 -9 -10 11 -10 34 0 89 -50 90 -82 0 -21 1 -22 8
-3 12 29 -1 57 -39 83 -36 24 -48 26 -70 12z"/>
<path d="M702 2295 c6 -13 15 -22 19 -19 5 2 1 14 -9 24 -22 26 -24 25 -10 -5z"/>
<path d="M2364 2287 c-30 -33 -89 -77 -102 -77 -12 0 -12 -3 -2 -15 12 -14 15
-13 35 5 12 11 25 20 29 20 5 0 17 11 28 25 21 27 48 33 48 11 0 -30 -13 -46
-36 -46 -27 0 -58 -48 -48 -75 5 -12 12 -5 25 25 13 28 24 40 33 37 20 -8 49
28 42 51 -10 31 -39 52 -52 39z"/>
<path d="M501 2259 c-2 -51 70 -111 106 -90 13 7 10 10 -14 15 -34 8 -67 38
-82 76 l-10 25 0 -26z"/>
<path d="M2220 2240 c0 -5 7 -7 15 -4 8 4 15 8 15 10 0 2 -7 4 -15 4 -8 0 -15
-4 -15 -10z"/>
<path d="M412 2141 c2 -9 15 -17 31 -19 16 -2 30 -9 33 -17 3 -7 14 -11 25 -8
10 3 26 0 33 -6 12 -10 17 -8 26 8 8 16 8 19 -3 15 -8 -3 -44 6 -81 20 -58 21
-67 22 -64 7z"/>
<path d="M2451 2144 c-12 -9 -21 -26 -21 -41 0 -15 -10 -37 -22 -50 -16 -18
-18 -23 -6 -23 22 0 48 33 48 61 0 31 10 46 35 51 17 3 18 5 4 10 -9 4 -26 0
-38 -8z"/>
<path d="M2364 2095 c-3 -8 -4 -20 -2 -27 3 -7 7 -1 10 15 6 29 1 36 -8 12z"/>
<path d="M2500 2099 c0 -5 5 -7 10 -4 6 3 10 8 10 11 0 2 -4 4 -10 4 -5 0 -10
-5 -10 -11z"/>
<path d="M481 2050 c13 -16 24 -28 27 -26 5 6 -31 55 -41 56 -4 0 2 -13 14
-30z"/>
<path d="M2488 2015 c-31 -18 -59 -30 -62 -27 -10 9 -6 -22 4 -38 8 -13 10
-13 10 1 0 10 25 27 63 45 37 17 62 35 59 42 -5 16 -8 15 -74 -23z"/>
<path d="M326 2014 c-4 -9 -5 -18 -4 -18 2 -1 27 -13 57 -26 30 -14 60 -30 66
-36 8 -8 14 -5 22 12 6 13 7 22 2 18 -11 -6 -96 31 -120 52 -15 13 -17 13 -23
-2z"/>
<path d="M2601 1939 c-1 -11 -23 -24 -66 -40 -36 -12 -65 -29 -65 -36 0 -17
-2 -18 73 16 36 16 68 27 71 24 8 -9 6 8 -4 32 -7 16 -9 16 -9 4z"/>
<path d="M417 1869 c4 -13 8 -18 11 -10 2 7 -1 18 -6 23 -8 8 -9 4 -5 -13z"/>
<path d="M2620 1870 c0 -5 5 -10 11 -10 5 0 7 5 4 10 -3 6 -8 10 -11 10 -2 0
-4 -4 -4 -10z"/>
<path d="M260 1855 c0 -8 8 -15 18 -15 9 0 41 -9 71 -21 43 -16 56 -18 62 -7
13 20 11 27 -8 22 -10 -3 -45 4 -77 16 -71 24 -66 24 -66 5z"/>
<path d="M2610 1785 c-19 -14 -49 -30 -68 -36 -49 -16 -26 -27 38 -19 30 4 44
8 30 9 l-25 1 25 20 c14 11 31 20 38 20 6 0 12 7 12 15 0 20 -9 18 -50 -10z"/>
<path d="M2640 1726 c0 -2 9 -6 20 -9 11 -3 20 -1 20 4 0 5 -9 9 -20 9 -11 0
-20 -2 -20 -4z"/>
<path d="M110 1646 c0 -14 279 -156 306 -156 40 0 0 28 -123 86 -76 36 -146
69 -155 74 -24 13 -28 13 -28 -4z"/>
<path d="M2623 1585 c-84 -41 -153 -78 -153 -83 0 -22 19 -17 129 38 64 32
134 65 154 74 20 8 37 22 37 30 0 9 -3 16 -7 16 -5 -1 -77 -34 -160 -75z"/>
<path d="M2633 1508 c-105 -50 -163 -83 -163 -93 0 -8 2 -15 4 -15 5 0 319
151 324 155 2 2 2 10 0 17 -2 11 -47 -7 -165 -64z"/>
<path d="M102 1568 c2 -10 307 -168 324 -168 2 0 4 7 4 15 0 10 -51 40 -145
85 -169 80 -187 87 -183 68z"/>
<path d="M93 1378 c9 -206 49 -361 140 -540 301 -592 963 -878 1602 -693 264
77 534 266 701 492 165 223 269 527 262 770 l-3 100 -95 -43 c-52 -24 -124
-58 -160 -77 -58 -30 -65 -37 -73 -72 -60 -285 -145 -449 -322 -616 -131 -124
-309 -215 -495 -254 -138 -29 -350 -17 -505 28 -140 40 -311 145 -420 256
-149 153 -235 316 -281 539 l-17 82 -56 26 c-31 15 -83 40 -116 56 -33 16 -84
41 -114 54 l-54 24 6 -132z m137 -37 c0 -5 -7 -14 -15 -21 -8 -7 -12 -16 -9
-21 11 -18 41 -8 62 21 25 34 75 42 86 14 11 -30 6 -52 -14 -57 -11 -3 -20 -1
-20 4 0 5 5 9 10 9 6 0 10 9 10 20 0 33 -24 23 -53 -22 -19 -30 -63 -38 -85
-16 -16 16 -15 65 1 71 19 8 27 8 27 -2z m140 -100 c0 -5 3 -16 6 -25 5 -13
-1 -16 -31 -16 -34 0 -36 -2 -33 -27 2 -23 7 -27 28 -24 14 1 28 8 32 14 8 14
13 9 22 -19 6 -20 2 -22 -47 -28 -29 -4 -65 -13 -79 -21 -29 -14 -38 -11 -38
14 0 11 10 17 27 19 35 3 47 15 39 40 -5 14 -13 18 -32 14 -14 -2 -28 -11 -31
-19 -5 -12 -7 -12 -14 -1 -12 18 -11 61 1 53 13 -8 130 15 130 26 0 5 5 9 10
9 6 0 10 -4 10 -9z m2311 -93 c-6 -17 -15 -22 -33 -20 -17 2 -28 -3 -32 -14
-7 -18 8 -34 33 -34 8 0 11 -6 7 -16 -3 -9 -6 -19 -6 -22 0 -4 -4 -2 -8 4 -4
6 -35 29 -69 53 -35 23 -63 46 -63 51 0 5 35 11 78 13 42 1 82 4 89 5 9 1 10
-5 4 -20z m-2261 -83 c21 -54 22 -72 6 -78 -13 -5 -15 -2 -10 17 7 29 -3 36
-35 25 -20 -8 -21 -12 -10 -25 10 -13 10 -17 -2 -25 -22 -14 -28 -11 -22 11 6
24 -14 27 -43 5 -19 -15 -19 -15 3 -34 22 -18 21 -31 -2 -31 -10 0 -45 71 -45
90 0 3 10 6 23 7 30 2 117 42 117 53 0 18 10 10 20 -15z m2143 -55 c37 -17 65
-35 63 -39 -3 -5 -30 -11 -60 -15 -86 -10 -94 -16 -45 -38 24 -10 49 -16 56
-14 14 6 16 -3 7 -28 -7 -19 -24 -21 -24 -3 0 14 -93 57 -123 57 -14 0 -16 4
-8 19 7 12 27 21 57 26 73 11 80 16 44 31 -18 8 -41 14 -51 14 -17 0 -18 3 -8
21 7 13 14 17 18 11 3 -6 37 -25 74 -42z m-2093 -64 c0 -7 -11 -34 -25 -60
-14 -26 -22 -46 -18 -44 50 24 63 34 64 47 0 11 4 9 11 -7 6 -12 9 -23 7 -25
-40 -23 -141 -68 -145 -64 -3 3 10 33 30 66 19 34 33 61 30 61 -12 0 -61 -30
-74 -44 -10 -12 -16 -14 -26 -5 -20 16 -17 24 7 26 22 2 104 47 114 63 8 13
25 3 25 -14z m1980 -96 c21 -11 41 -24 45 -30 3 -5 15 -10 26 -10 22 0 24 -8
5 -32 -16 -22 -26 -23 -26 -3 0 8 -5 15 -10 15 -6 0 -28 11 -50 25 -22 14 -46
25 -55 25 -19 0 -19 5 2 37 15 22 19 24 21 10 2 -10 21 -26 42 -37z m-1900
-40 c8 -15 6 -24 -10 -40 -11 -11 -20 -24 -20 -29 0 -10 39 -3 56 11 7 5 16 3
23 -6 9 -11 2 -15 -40 -20 -37 -5 -59 -15 -79 -35 -28 -27 -29 -27 -45 -8 -9
10 -15 20 -13 21 2 1 15 7 30 14 16 7 39 32 55 62 16 27 29 50 30 50 1 0 7 -9
13 -20z m1843 -55 c29 -25 60 -45 70 -45 16 0 16 -2 1 -25 -18 -27 -34 -33
-34 -12 0 7 -10 18 -21 25 -18 12 -24 11 -38 -2 -20 -20 -5 -49 28 -54 25 -4
26 -6 5 -31 -16 -19 -18 -18 -53 16 -20 19 -48 42 -63 51 -32 19 -34 25 -13
42 13 11 18 10 31 -8 19 -27 36 -28 51 -3 11 17 9 23 -12 39 -16 13 -23 26
-19 36 3 9 8 16 11 16 3 0 28 -20 56 -45z m-1743 -72 c0 -5 -20 -40 -43 -79
-34 -57 -45 -68 -55 -58 -16 17 -15 22 3 41 17 16 16 34 -2 40 -6 2 -18 -3
-26 -12 -9 -8 -23 -12 -31 -9 -21 8 -20 24 2 24 9 1 42 14 72 30 55 29 80 36
80 23z m1600 -48 c0 -8 -8 -11 -21 -8 -22 6 -39 -10 -39 -39 0 -26 49 -78 75
-78 27 0 49 24 42 45 -4 8 -2 17 2 20 12 7 23 -24 16 -47 -4 -10 -20 -25 -36
-33 -85 -45 -169 78 -96 141 27 23 57 23 57 -1z m-1533 -17 c6 -8 7 -37 3 -72
l-6 -58 27 33 c15 19 25 37 23 41 -3 5 1 8 10 8 29 0 20 -21 -29 -74 -44 -46
-73 -67 -68 -47 0 3 4 33 8 66 l6 60 -30 -33 c-17 -18 -31 -39 -31 -47 0 -18
-7 -19 -24 -3 -10 9 -2 21 36 59 26 26 48 54 48 63 0 19 14 21 27 4z m178
-124 c21 -14 23 -19 13 -38 -12 -21 -12 -21 -18 4 -15 62 -104 10 -98 -57 4
-47 18 -45 45 6 1 1 11 -4 23 -12 17 -12 18 -15 5 -20 -8 -4 -15 -14 -15 -23
0 -13 -6 -15 -31 -10 -65 13 -80 86 -30 137 33 33 69 37 106 13z m290 -68
c162 -40 321 -43 470 -10 138 30 119 36 230 -69 l100 -94 -30 -15 c-52 -27
-193 -68 -288 -83 -108 -17 -248 -19 -367 -5 -97 12 -289 60 -352 88 l-43 19
94 96 c61 62 100 95 110 93 9 -3 43 -12 76 -20z"/>
<path d="M2568 1118 c9 -9 15 -9 24 0 9 9 7 12 -12 12 -19 0 -21 -3 -12 -12z"/>
<path d="M580 650 c-8 -5 -11 -12 -7 -16 4 -4 13 -2 19 4 15 15 7 24 -12 12z"/>
<path d="M1165 358 c-4 -14 -25 -116 -25 -123 0 -3 8 -5 19 -5 14 0 20 10 24
38 4 20 9 52 13 70 5 26 3 32 -10 32 -9 0 -18 -6 -21 -12z"/>
<path d="M1728 353 c20 -39 -17 -60 -40 -24 -6 10 -18 17 -25 14 -27 -10 -12
-33 37 -55 34 -16 50 -29 50 -42 0 -15 3 -16 15 -6 21 17 19 36 -6 53 -18 13
-19 18 -7 36 11 18 11 23 -2 31 -23 15 -32 12 -22 -7z"/>
<path d="M1324 342 c-6 -4 -16 -17 -22 -29 -10 -17 -9 -25 4 -37 24 -25 29
-20 29 29 0 25 0 45 0 45 0 0 -5 -4 -11 -8z"/>
<path d="M1371 318 c5 -19 5 -38 -2 -49 -5 -11 -6 -19 -2 -19 4 -1 -3 -10 -16
-20 -13 -11 -19 -20 -13 -20 20 0 72 52 72 72 0 25 -16 54 -34 61 -12 5 -13 0
-5 -25z"/>
<path d="M1547 333 c-4 -3 -7 -24 -7 -45 0 -37 -1 -38 -35 -38 -19 0 -35 -4
-35 -10 0 -5 18 -10 40 -10 31 0 38 -3 34 -15 -4 -11 0 -15 16 -15 15 0 20 4
17 15 -4 8 -1 17 4 21 7 4 7 10 0 17 -6 6 -11 28 -11 49 0 36 -8 47 -23 31z"/>
<path d="M1675 268 c-10 -24 1 -48 21 -48 12 0 14 3 6 13 -5 6 -12 21 -14 32
-5 18 -6 18 -13 3z"/>
</g>
</svg>
